<?xml version="1.0" encoding="iso-8859-1"?>
<!-- Generator: Adobe Illustrator 19.0.0, SVG Export Plug-In . SVG Version: 6.00 Build 0)  -->
<svg version="1.1" id="Layer_1" xmlns="http://www.w3.org/2000/svg" xmlns:xlink="http://www.w3.org/1999/xlink" x="0px" y="0px"
	 viewBox="0 0 512 512" style="enable-background:new 0 0 512 512;" xml:space="preserve">
<g>
	<g>
		<g>
			<path d="M302.98,365.338l-42.731-45.333c-2.411-2.219-6.123-2.219-8.533,0l-43.371,45.333
				c-10.176,9.451-14.507,25.109-6.016,40.96c5.397,10.048,13.184,16.811,24.576,17.259c7.424,0.277,10.347-2.197,14.656-6.208
				c1.131-1.067,2.987-0.256,2.987,1.28v7.616c0,4.096-1.088,6.293-3.115,9.856l-3.925,6.891c-0.853,1.493,0.213,3.349,1.941,3.349
				h33.28c1.728,0,2.795-1.856,1.941-3.349l-3.925-6.891c-2.048-3.563-3.115-5.76-3.115-9.856v-7.701
				c0-1.493,1.835-2.261,2.923-1.216c4.181,4.032,5.504,6.528,12.992,6.229c11.029-0.469,19.755-6.464,25.451-15.915
				C318.831,391.343,313.455,375.044,302.98,365.338z"/>
			<path d="M426.667,0H85.333C73.551,0,64,9.551,64,21.333V256v234.667C64,502.449,73.551,512,85.333,512h341.333
				c11.782,0,21.333-9.551,21.333-21.333V256V21.333C448,9.551,438.449,0,426.667,0z M106.667,42.667h298.667v192H106.667V42.667z
				 M106.667,469.333v-192h298.667v192H106.667z"/>
			<path d="M298.667,64c-11.782,0-21.333,9.551-21.333,21.333v64c0,11.791-9.542,21.333-21.333,21.333s-21.333-9.542-21.333-21.333
				c0-11.782-9.551-21.333-21.333-21.333C201.551,128,192,137.551,192,149.333c0,35.355,28.645,64,64,64s64-28.645,64-64v-64
				C320,73.551,310.449,64,298.667,64z"/>
		</g>
	</g>
</g>
<g>
</g>
<g>
</g>
<g>
</g>
<g>
</g>
<g>
</g>
<g>
</g>
<g>
</g>
<g>
</g>
<g>
</g>
<g>
</g>
<g>
</g>
<g>
</g>
<g>
</g>
<g>
</g>
<g>
</g>
</svg>
