<?xml version="1.0" encoding="iso-8859-1"?>
<!-- Generator: Adobe Illustrator 19.0.0, SVG Export Plug-In . SVG Version: 6.00 Build 0)  -->
<svg version="1.1" id="Capa_1" xmlns="http://www.w3.org/2000/svg" xmlns:xlink="http://www.w3.org/1999/xlink" x="0px" y="0px"
	 viewBox="0 0 512 512" style="enable-background:new 0 0 512 512;" xml:space="preserve">
<g>
	<g>
		<path d="M484.525,111.218L396.918,5.315C394.122,1.937,390.004,0,385.619,0s-8.502,1.938-11.296,5.316l-87.606,105.905
			c-4.477,5.414-4.477,13.272,0.002,18.688l87.603,105.901c2.795,3.379,6.912,5.317,11.297,5.317c0.001,0,0.002,0,0.002,0
			c4.384,0,8.502-1.937,11.298-5.316l87.606-105.902C489.005,124.495,489.005,116.634,484.525,111.218z M385.621,218.092
			l-80.678-97.529l80.678-97.529l80.68,97.529L385.621,218.092z"/>
	</g>
</g>
<g>
	<g>
		<path d="M204.46,1.192c-11.903-2.093-24.32-1.191-35.915,2.609c-11.082,3.635-21.303,9.912-29.562,18.151
			c-0.289,0.287-0.559,0.592-0.81,0.912c-1.43,1.825-3.417,4.433-5.438,7.106c-2.21-2.926-4.401-5.805-5.933-7.771
			c-0.283-0.362-0.591-0.706-0.921-1.026C108.777,4.561,84.659-2.955,61.287,1.08c-3.51,0.628-6.988,1.499-10.361,2.597
			C21.239,13.428,0.834,40.946,0.15,72.136c-0.488,20.472,7.696,40.406,22.458,54.728c3.287,3.549,55.304,60.898,99.346,109.477
			c2.755,3.039,6.685,4.784,10.782,4.786c0.004,0,0.007,0,0.011,0c4.093,0,8.022-1.738,10.78-4.77
			c35.543-39.091,95.985-105.539,99.549-109.369c14.746-14.246,22.938-34.159,22.484-54.666
			C264.802,37.168,239.106,7.254,204.46,1.192z M229.051,112.724l0.011,0.011c-1.66,1.712-11.907,12.915-96.31,105.74
			c-84.211-92.887-94.426-104.099-96.101-105.831l0.01-0.011c-10.855-10.462-16.875-25.049-16.518-40.041
			c0.499-22.747,15.378-42.807,36.998-49.908c2.477-0.806,5.055-1.452,7.607-1.908c16.809-2.901,34.217,2.431,46.716,14.279
			c3.098,3.999,8.452,11.13,11.459,15.146c2.306,3.079,5.975,4.916,9.815,4.916c0.003,0,0.006,0,0.009,0
			c3.843-0.002,7.512-1.845,9.817-4.93c2.307-3.089,7.848-10.489,10.964-14.494c5.98-5.836,13.313-10.287,21.246-12.89
			c8.482-2.78,17.548-3.442,26.227-1.915c0.003,0.001,0.007,0.001,0.01,0.002c25.264,4.419,43.999,26.229,44.551,51.866
			C245.893,87.767,239.875,102.334,229.051,112.724z"/>
	</g>
</g>
<g>
	<g>
		<path d="M393.933,175.079l-27.445-35.069c-3.404-4.35-9.688-5.116-14.038-1.712s-5.116,9.689-1.712,14.037l27.445,35.069
			c1.973,2.52,4.912,3.837,7.882,3.837c2.156,0,4.327-0.694,6.156-2.125C396.571,185.712,397.336,179.428,393.933,175.079z"/>
	</g>
</g>
<g>
	<g>
		<path d="M135.211,166.643c-31.381-34.733-31.547-34.876-32.161-35.412c-4.166-3.625-10.483-3.189-14.107,0.977
			c-3.447,3.96-3.222,9.863,0.385,13.551c1.607,1.729,19.346,21.344,31.045,34.293c1.975,2.185,4.694,3.296,7.423,3.296
			c2.39,0,4.788-0.851,6.7-2.581C138.593,177.064,138.913,170.741,135.211,166.643z M89.373,145.805
			c0.174,0.176,0.357,0.347,0.546,0.513C89.859,146.265,89.663,146.105,89.373,145.805z"/>
	</g>
</g>
<g>
	<g>
		<path d="M80.589,108.831l-0.045-0.029c-4.66-2.964-10.817-1.574-13.781,3.086c-1.054,1.656-1.556,3.507-1.557,5.337
			c-0.001,3.318,1.647,6.571,4.651,8.481c1.664,1.058,3.52,1.563,5.356,1.563c3.307,0,6.542-1.639,8.449-4.634
			c1.059-1.665,1.564-3.525,1.563-5.363C85.222,113.968,83.583,110.735,80.589,108.831z"/>
	</g>
</g>
<g>
	<g>
		<path d="M173.552,357.578l-31.309-34.574c-3.706-4.093-10.032-4.406-14.124-0.7c-4.094,3.708-4.407,10.031-0.7,14.125
			l31.309,34.574c1.974,2.18,4.689,3.288,7.415,3.288c2.393,0,4.796-0.854,6.709-2.588
			C176.945,367.995,177.258,361.672,173.552,357.578z"/>
	</g>
</g>
<g>
	<g>
		<path d="M192.776,377.366c-4.66-2.968-10.841-1.599-13.807,3.059c-1.06,1.665-1.567,3.524-1.568,5.362
			c-0.001,3.304,1.635,6.538,4.628,8.445l0.044,0.028c1.662,1.059,3.515,1.564,5.346,1.564c3.301,0,6.53-1.641,8.439-4.637
			c1.058-1.66,1.562-3.516,1.562-5.351C197.418,382.523,195.773,379.276,192.776,377.366z"/>
	</g>
</g>
<g>
	<g>
		<path d="M342.175,112.565l-0.045-0.028c-4.67-2.947-10.823-1.536-13.771,3.134c-1.042,1.652-1.538,3.493-1.538,5.313
			c0,3.329,1.661,6.59,4.681,8.495c1.656,1.045,3.503,1.544,5.327,1.544c3.318,0,6.565-1.651,8.466-4.664
			c1.045-1.656,1.543-3.501,1.544-5.324C346.84,117.715,345.19,114.468,342.175,112.565z"/>
	</g>
</g>
<g>
	<g>
		<path d="M226.138,366.467c-2.929-3.157-45.695-50.187-81.873-89.991c-2.736-3.01-6.634-4.75-10.696-4.773
			c-0.027,0-0.054,0-0.081,0c-4.033,0-7.918,1.694-10.67,4.655c-38.855,41.82-80.945,87.103-83.67,89.974
			c-12.681,12.247-19.728,29.375-19.34,47.018c0.644,30.234,22.739,55.956,52.531,61.162c10.244,1.794,20.915,1.022,30.886-2.237
			c0.681-0.224,1.357-0.459,2.028-0.704c-3.098,7.42-6.573,13.116-9.452,17.132c-0.001,0-0.001,0-0.001,0
			c-3.191,4.454-3.62,10.247-1.116,15.12c2.509,4.886,7.482,7.921,12.977,7.921h49.4c5.493,0,10.464-3.034,12.975-7.918
			c2.503-4.869,2.081-10.659-1.104-15.109c-2.895-4.046-6.38-9.784-9.478-17.262c10.546,3.956,22.054,5.103,33.373,3.14
			c3.049-0.534,6.048-1.28,8.937-2.222c25.523-8.389,43.067-32.051,43.654-58.861C245.838,395.924,238.814,378.792,226.138,366.467z
			 M195.54,453.366c-1.971,0.644-4.047,1.158-6.15,1.527c-12.502,2.17-25.358-1.203-35.271-9.251
			c-4.027-3.268-9.708-3.642-14.14-0.929c-4.433,2.715-6.685,7.948-5.605,13.021c3.048,14.325,8.016,25.655,12.788,34.012h-29.591
			c4.738-8.274,9.678-19.47,12.753-33.602c1.098-5.047-1.112-10.279-5.501-13.018c-4.389-2.74-10.06-2.429-14.115,0.777
			c-4.102,3.243-8.723,5.724-13.716,7.367c-6.851,2.239-14.181,2.77-21.208,1.541c-20.408-3.566-35.541-21.182-35.982-41.895
			c-0.268-12.133,4.593-23.902,13.333-32.291l-0.009-0.009c1.546-1.573,10.564-11.237,80.315-86.312
			c67.945,74.752,77.015,84.692,78.647,86.376l-0.012,0.011c8.771,8.464,13.635,20.252,13.346,32.363
			C225.02,431.424,213.002,447.627,195.54,453.366z"/>
	</g>
</g>
<g>
	<g>
		<path d="M449.164,351.442c1.414-5.425,2.141-11.03,2.141-16.67c0-35.957-29.129-65.514-65.03-66.099
			c-0.311-0.02-0.615-0.028-0.901-0.022c-0.332-0.006-0.601,0.002-0.901,0.023c-35.89,0.596-65.007,30.148-65.007,66.098
			c0,5.638,0.727,11.244,2.141,16.67c-0.788,0.04-1.577,0.095-2.364,0.163c-32.304,2.8-58.19,29.296-60.213,61.631
			c-1.156,18.479,5.162,36.06,17.79,49.502c12.451,13.254,30.017,20.855,48.195,20.855c11.189,0,21.159-1.508,29.842-4.499
			c-2.111,4.038-4.214,7.318-6.015,9.836c-3.199,4.473-3.627,10.286-1.115,15.169c2.506,4.874,7.471,7.901,12.956,7.901H410.1
			c5.483,0,10.447-3.025,12.951-7.895c2.512-4.881,2.088-10.693-1.106-15.167c-1.797-2.517-3.896-5.796-6-9.835
			c7.555,2.601,16.083,4.079,25.533,4.415c18.685,0.657,37.038-6.36,50.388-19.271c12.94-12.514,20.043-29.179,20.004-46.924
			C511.794,382.093,483.969,353.226,449.164,351.442z M477.965,449.871c-9.464,9.154-22.496,14.13-35.773,13.661
			c-14.344-0.511-25.462-4.169-33.048-10.873c-4.106-3.629-9.991-4.122-14.641-1.227c-4.646,2.893-6.797,8.385-5.354,13.667
			c3.025,11.061,7.149,20.048,11.061,26.902h-29.624c3.925-6.863,8.068-15.863,11.112-26.937c1.453-5.294-0.713-10.805-5.391-13.711
			c-4.651-2.889-10.515-2.393-14.593,1.235c-8.21,7.304-20.555,11.007-36.697,11.007c-12.867,0-24.806-5.167-33.62-14.549
			c-8.807-9.376-13.214-21.65-12.406-34.561c1.41-22.536,19.457-41.003,41.979-42.956c4.629-0.4,9.264-0.11,13.779,0.866
			c3.855,0.831,7.845-0.679,10.179-3.863c2.333-3.184,2.575-7.443,0.617-10.87c-3.976-6.965-6.079-14.88-6.079-22.891
			c0-25.184,20.488-45.867,45.673-46.105c0.082-0.001,0.163-0.002,0.245-0.005c0.081,0.003,0.163,0.004,0.245,0.005
			c25.187,0.237,45.677,20.92,45.677,46.105c0,8.015-2.104,15.927-6.084,22.883c-1.961,3.428-1.722,7.689,0.612,10.875
			s6.323,4.702,10.184,3.865c3.189-0.691,6.462-1.041,9.729-1.041c25.378,0,46.069,20.64,46.125,46.012
			C491.901,429.627,486.962,441.17,477.965,449.871z"/>
	</g>
</g>
<g>
	<g>
		<path d="M411.438,348.879c-3.879-3.931-10.212-3.974-14.141-0.096l-0.108,0.107c-3.932,3.879-3.976,10.21-0.097,14.142
			c1.957,1.983,4.537,2.977,7.119,2.977c2.536,0,5.074-0.959,7.023-2.881l0.108-0.107
			C415.273,359.141,415.317,352.811,411.438,348.879z"/>
	</g>
</g>
<g>
	<g>
		<path d="M420.851,332.377c-2.888-17.176-17.638-29.642-35.075-29.642c-5.522,0-10,4.477-10,10s4.478,10,10,10
			c7.634,0,14.091,5.45,15.353,12.959c0.822,4.885,5.055,8.343,9.85,8.343c0.551,0,1.11-0.046,1.669-0.139
			C418.094,342.981,421.767,337.823,420.851,332.377z"/>
	</g>
</g>
<g>
</g>
<g>
</g>
<g>
</g>
<g>
</g>
<g>
</g>
<g>
</g>
<g>
</g>
<g>
</g>
<g>
</g>
<g>
</g>
<g>
</g>
<g>
</g>
<g>
</g>
<g>
</g>
<g>
</g>
</svg>
