<?xml version="1.0" encoding="iso-8859-1"?>
<!-- Generator: Adobe Illustrator 19.0.0, SVG Export Plug-In . SVG Version: 6.00 Build 0)  -->
<svg version="1.1" id="Capa_1" xmlns="http://www.w3.org/2000/svg" xmlns:xlink="http://www.w3.org/1999/xlink" x="0px" y="0px"
	 viewBox="0 0 472.616 472.616" style="enable-background:new 0 0 472.616 472.616;" xml:space="preserve">
<g>
	<g>
		<path d="M287.508,157.538c-19.692,0-38.4,7.877-51.2,22.646c-12.8-13.785-31.508-22.646-51.2-22.646
			c-37.415,0-68.923,33.477-68.923,72.861c0,39.385,40.369,108.308,117.169,133.908l2.954,0.985l2.954-0.985
			c76.8-26.585,117.169-94.523,117.169-133.908C356.431,191.015,324.923,157.538,287.508,157.538z M237.292,343.631
			C166.4,318.031,135.877,256,135.877,229.415c0-28.554,22.646-53.169,49.231-53.169c17.723,0,33.477,9.846,43.323,24.615
			l8.861,14.769l8.862-14.769c8.861-14.769,25.6-24.615,43.323-24.615c26.585,0,49.231,24.615,49.231,53.169
			C338.708,256,308.185,318.031,237.292,343.631z"/>
	</g>
</g>
<g>
	<g>
		<path d="M393.846,0H78.769C57.108,0,39.385,17.723,39.385,39.385v393.846c0,21.662,17.723,39.385,39.385,39.385h315.077
			c21.662,0,39.385-17.723,39.385-39.385V39.385C433.231,17.723,415.508,0,393.846,0z M413.538,433.231
			c0,10.831-8.861,19.692-19.692,19.692H78.769c-10.831,0-19.692-8.861-19.692-19.692V39.385c0-10.831,8.862-19.692,19.692-19.692
			h315.077c10.831,0,19.692,8.862,19.692,19.692V433.231z"/>
	</g>
</g>
<g>
	<g>
		<polygon points="127.015,35.446 109.292,35.446 79.754,114.215 97.477,122.092 118.154,66.954 138.831,122.092 156.554,114.215 		
			"/>
	</g>
</g>
<g>
	<g>
		<rect x="95.51" y="88.61" width="44.31" height="19.692"/>
	</g>
</g>
<g>
	<g>
		<polygon points="363.323,350.523 345.6,350.523 316.062,429.292 333.785,437.169 354.462,382.031 375.139,437.169 
			392.861,429.292 		"/>
	</g>
</g>
<g>
	<g>
		<rect x="331.81" y="403.69" width="44.31" height="19.692"/>
	</g>
</g>
<g>
</g>
<g>
</g>
<g>
</g>
<g>
</g>
<g>
</g>
<g>
</g>
<g>
</g>
<g>
</g>
<g>
</g>
<g>
</g>
<g>
</g>
<g>
</g>
<g>
</g>
<g>
</g>
<g>
</g>
</svg>
