<?xml version="1.0" encoding="iso-8859-1"?>
<!-- Generator: Adobe Illustrator 19.0.0, SVG Export Plug-In . SVG Version: 6.00 Build 0)  -->
<svg version="1.1" id="Capa_1" xmlns="http://www.w3.org/2000/svg" xmlns:xlink="http://www.w3.org/1999/xlink" x="0px" y="0px"
	 viewBox="0 0 201.387 201.387" style="enable-background:new 0 0 201.387 201.387;" xml:space="preserve">
<g>
	<g>
		<path d="M133.12,97.28H68.267c-1.884,0-3.413,1.529-3.413,3.413v64.853c0,1.884,1.529,3.413,3.413,3.413h64.853
			c1.884,0,3.413-1.529,3.413-3.413v-64.853C136.533,98.809,135.004,97.28,133.12,97.28z M129.707,162.133H71.68v-58.027h58.027
			V162.133z"/>
	</g>
</g>
<g>
	<g>
		<path d="M133.12,32.427H68.267c-1.884,0-3.413,1.529-3.413,3.413v64.853c0,1.884,1.529,3.413,3.413,3.413h64.853
			c1.884,0,3.413-1.529,3.413-3.413V35.84C136.533,33.956,135.004,32.427,133.12,32.427z M129.707,97.28H71.68V39.253h58.027V97.28z
			"/>
	</g>
</g>
<g>
	<g>
		<path d="M68.267,97.28H3.413C1.529,97.28,0,98.809,0,100.693v64.853c0,1.884,1.529,3.413,3.413,3.413h64.853
			c1.884,0,3.413-1.529,3.413-3.413v-64.853C71.68,98.809,70.151,97.28,68.267,97.28z M64.853,162.133H6.827v-58.027h58.027V162.133
			z"/>
	</g>
</g>
<g>
	<g>
		<path d="M197.973,97.28H133.12c-1.884,0-3.413,1.529-3.413,3.413v64.853c0,1.884,1.529,3.413,3.413,3.413h64.853
			c1.884,0,3.413-1.529,3.413-3.413v-64.853C201.387,98.809,199.858,97.28,197.973,97.28z M194.56,162.133h-58.027v-58.027h58.027
			V162.133z"/>
	</g>
</g>
<g>
</g>
<g>
</g>
<g>
</g>
<g>
</g>
<g>
</g>
<g>
</g>
<g>
</g>
<g>
</g>
<g>
</g>
<g>
</g>
<g>
</g>
<g>
</g>
<g>
</g>
<g>
</g>
<g>
</g>
</svg>
